<svg
  width="20"
  height="20"
  viewBox="0 0 20 20"
  fill="none"
  xmlns="http://www.w3.org/2000/svg"
>
  <path
    d="M10.8337 17.5V19.1667H9.16699V17.5H2.50033C2.27931 17.5 2.06735 17.4122 1.91107 17.2559C1.75479 17.0996 1.66699 16.8877 1.66699 16.6667V3.33334C1.66699 3.11232 1.75479 2.90036 1.91107 2.74408C2.06735 2.5878 2.27931 2.5 2.50033 2.5H7.50033C7.97331 2.49944 8.44098 2.5998 8.87209 2.79437C9.30321 2.98895 9.68785 3.27327 10.0003 3.62834C10.3128 3.27327 10.6974 2.98895 11.1286 2.79437C11.5597 2.5998 12.0273 2.49944 12.5003 2.5H17.5003C17.7213 2.5 17.9333 2.5878 18.0896 2.74408C18.2459 2.90036 18.3337 3.11232 18.3337 3.33334V16.6667C18.3337 16.8877 18.2459 17.0996 18.0896 17.2559C17.9333 17.4122 17.7213 17.5 17.5003 17.5H10.8337ZM16.667 15.8333V4.16667H12.5003C12.0583 4.16667 11.6344 4.34226 11.3218 4.65482C11.0093 4.96738 10.8337 5.39131 10.8337 5.83334V15.8333H16.667ZM9.16699 15.8333V5.83334C9.16699 5.39131 8.9914 4.96738 8.67884 4.65482C8.36628 4.34226 7.94235 4.16667 7.50033 4.16667H3.33366V15.8333H9.16699Z"
    fill="black"
  />
</svg>
