<svg
  width="16"
  height="16"
  viewBox="0 0 16 16"
  xmlns="http://www.w3.org/2000/svg"
>
  <path
    d="M8.00065 14.6666C4.31865 14.6666 1.33398 11.682 1.33398 7.99998C1.33398 4.31798 4.31865 1.33331 8.00065 1.33331C11.6827 1.33331 14.6673 4.31798 14.6673 7.99998C14.6673 11.682 11.6827 14.6666 8.00065 14.6666ZM8.00065 13.3333C9.41514 13.3333 10.7717 12.7714 11.7719 11.7712C12.7721 10.771 13.334 9.41447 13.334 7.99998C13.334 6.58549 12.7721 5.22894 11.7719 4.22874C10.7717 3.22855 9.41514 2.66665 8.00065 2.66665C6.58616 2.66665 5.22961 3.22855 4.22942 4.22874C3.22922 5.22894 2.66732 6.58549 2.66732 7.99998C2.66732 9.41447 3.22922 10.771 4.22942 11.7712C5.22961 12.7714 6.58616 13.3333 8.00065 13.3333V13.3333ZM7.33399 4.66665H8.66732V5.99998H7.33399V4.66665ZM7.33399 7.33331H8.66732V11.3333H7.33399V7.33331Z"
  />
</svg>
